PathFileType	4	(X/Y/Z)	RBDS09\RBDS09runT45.trc
DataRate	CameraRate	NumFrames	NumMarkers	Units	OrigDataRate	OrigDataStartFrame	OrigNumFrames
150.000000	150.000000	4	33	mm	150.000000	562	4500
Frame#	Time	L.ASIS			L.Heel.Bottom			L.Heel.Lateral			L.Heel.Top			L.Iliac.Crest			L.MT1			L.MT5			L.PSIS			L.Shank.Bottom.Lateral			L.Shank.Bottom.Medial			L.Shank.Top.Lateral			L.Shank.Top.Medial			L.Thigh.Bottom.Lateral			L.Thigh.Bottom.Medial			L.Thigh.Top.Lateral			L.Thigh.Top.Medial			R.ASIS			R.ASY			R.Heel.Bottom			R.Heel.Lateral			R.Heel.Top			R.Iliac.Crest			R.MT1			R.MT5			R.PSIS			R.Shank.Bottom.Lateral			R.Shank.Bottom.Medial			R.Shank.Top.Lateral			R.Shank.Top.Medial			R.Thigh.Bottom.Lateral			R.Thigh.Bottom.Medial			R.Thigh.Top.Lateral			R.Thigh.Top.Medial			
		X1	Y1	Z1	X2	Y2	Z2	X3	Y3	Z3	X4	Y4	Z4	X5	Y5	Z5	X6	Y6	Z6	X7	Y7	Z7	X8	Y8	Z8	X9	Y9	Z9	X10	Y10	Z10	X11	Y11	Z11	X12	Y12	Z12	X13	Y13	Z13	X14	Y14	Z14	X15	Y15	Z15	X16	Y16	Z16	X17	Y17	Z17	X18	Y18	Z18	X19	Y19	Z19	X20	Y20	Z20	X21	Y21	Z21	X22	Y22	Z22	X23	Y23	Z23	X24	Y24	Z24	X25	Y25	Z25	X26	Y26	Z26	X27	Y27	Z27	X28	Y28	Z28	X29	Y29	Z29	X30	Y30	Z30	X31	Y31	Z31	X32	Y32	Z32	X33	Y33	Z33	

563	3.746666666666667	2273.982684061391	936.9385714784306	842.2533809275734	1841.253629263425	80.12517733086105	925.8584067536126	1873.613252480945	91.46307330408007	880.4217888204387	1862.612731573935	124.9877714101734	925.1812932696622	2192.098180116254	977.719874654802	809.2733424177326	2051.636509354804	36.12382431771903	936.0391170353616	2000.986997240455	43.20342973677413	836.263651668382	2112.141320038582	960.3401132727566	933.5318808159891	1964.216589135988	197.9841485820617	855.0251955442544	1934.138738499748	219.3851095879096	894.113857180143	1996.609833762133	269.471298826364	839.7559803149668	1970.676024382092	290.832672407205	881.9260569236968	2144.732231088869	571.5511226404304	820.0797581055908	2099.464168200748	572.3530657802636	878.1379955550866	2136.562482460272	681.708550273381	814.7894034516369	2096.430722742731	682.8042894886562	871.8939543869321	2269.995647961701	934.043748325081	1081.97003506739	2095.786840584234	285.4597831807117	1046.038642944998	1970.15604438235	412.4526969713738	1010.017772595115	1995.716195790698	390.6857222981111	1059.627974354946	2017.537636132942	423.669931899656	1016.320209259427	2189.648309964869	993.0968146521857	1119.62646641581	2079.433705883303	231.4231502469302	995.7720757216905	2035.472608599405	255.3703380588071	1096.567145890507	2108.387544390597	954.8597347396382	1007.712775877407	2115.251456591023	433.2574807944788	1079.102746360527	2112.53385093315	454.5882134668228	1032.306054452089	2185.456691742113	478.5366635704515	1093.232816460342	2179.078305171437	498.5344757586951	1044.374083987626	2384.931666045465	589.7249235507629	1131.346296805839	2342.444310284537	555.2003506139548	1084.510199313976	2306.822748071831	668.2536571921036	1142.219500443589	2265.090197119303	632.3666453353856	1100.845306666763	
564	3.753333333333333	2277.06173010112	937.1317986771968	841.5894302366644	1815.602818549037	91.38129431231278	924.555193984433	1848.385770310854	100.1818533979898	879.0020958707971	1839.018075579122	134.9962146335247	923.054194505551	2196.990696832343	979.6936829520566	808.7938175640464	2021.932825233428	35.78610773517601	935.9935616972526	1972.211456673181	44.27949019583158	835.7679360247514	2115.10343411649	962.6929847379141	933.0095113770835	1940.991626105418	205.1589918067515	853.8123969247229	1911.520088516047	226.7414309424646	893.2691276963934	1974.644776609553	276.0906664147124	838.958930198153	1949.027402091198	297.6825414315517	881.2351419372243	2132.018547237468	576.3901926472213	820.609720855225	2087.584877782541	579.5620033263496	879.1678551192659	2129.64278249498	686.8045962179865	815.1326644072667	2090.496890028392	690.0125972958052	872.8062347631967	2271.849765462537	937.6103796664784	1081.153919435721	2124.474911475179	270.9062232677089	1047.548356479899	1989.232415282206	386.5154442826151	1008.169073066576	2016.142903817616	367.8898150022777	1058.348779617904	2035.498817008307	401.7458724812692	1014.640890229251	2188.558149863225	995.557616147856	1118.97693600332	2113.073416082313	214.7941029064268	998.3673203760105	2066.545473591885	236.9306181399991	1098.181094639478	2110.596537415472	957.6862902037757	1006.96969709614	2132.153313211665	419.6050522188245	1078.021846546723	2128.133930813337	440.3379714642028	1031.080860906719	2198.598816084309	470.4284853637546	1091.98103019817	2191.00532091148	489.4516002191929	1042.930690416081	2393.629862164997	599.276809077085	1130.847759078132	2351.329975588511	562.7372097170768	1085.059686221374	2313.78322364991	675.8586538403895	1141.837812153226	2272.772846641134	638.7953071115278	1100.81169155211	
565	3.76	2280.374970223563	937.3943908666427	840.9388616871793	1791.46250372288	103.9690877907557	922.5874023572453	1824.571936591878	109.9272304435689	876.9522322985891	1817.141881846165	146.0059662448542	920.2462504105654	2202.752974052352	981.882326025167	808.4370313317125	1992.590528364975	35.73511969368381	935.6535520854165	1944.073640969952	45.79340339049742	834.8862437966259	2118.451631729575	965.419600715016	932.6032243813162	1919.102191114493	213.1674617198361	852.117279385964	1890.105002671646	234.7560124952885	891.921745183915	1953.845397923497	283.6662938933488	837.8482709530714	1928.345338908101	305.3479315399145	880.1572748447099	2119.826469276763	582.3903045755263	821.4575504609252	2076.486278283597	587.9375009463796	880.5841549479342	2123.269971386814	692.7266915878358	815.6972719978991	2085.370440143986	698.0125977098247	874.0104997609408	2274.128553997004	941.2547904507833	1080.066997358452	2153.986043344455	256.8363177312735	1048.997992669009	2010.072064273679	360.1610820359003	1006.218997019928	2038.044597507132	344.7778676982757	1056.980122087605	2054.869652045787	379.3417142246325	1012.853243278603	2188.997403212471	998.5373071295671	1118.364972549036	2147.824435401324	199.0812714540671	1000.968336993923	2098.819142598006	219.1334884644025	1099.765800895442	2113.265934418818	960.9534529940496	1006.353265245416	2149.701480960501	405.6709543172307	1076.768534114682	2144.50222752344	425.5325498616814	1029.600778534729	2211.908105702871	461.766723516675	1090.433415090857	2203.269908384501	479.5573432102825	1041.123990707454	2401.221142173912	608.5559928582966	1130.311428310736	2359.013085563917	570.1574547562975	1085.729959123885	2320.060893512572	683.4656778833386	1141.293400699321	2279.568264431224	645.3326089566852	1100.801394396085	
566	3.766666666666667	2283.86002072243	937.6802603042511	840.3273531853928	1769.053861100852	117.79322738273	919.9297347001847	1802.367791798264	120.6540517191621	874.2684505801682	1797.160293918277	157.9029486077612	916.7820206974302	2209.387326599598	984.2506723311051	808.240877520975	1963.751813556874	36.12108155749567	934.9945588946421	1916.730958982824	47.85005406823965	833.6175223068558	2122.125408943584	968.4769739482455	932.2482551392679	1898.719052903494	221.8661076950449	849.949134057023	1870.042351006087	243.3085075679911	890.0561836429066	1934.396306740543	292.049658144383	836.4271396276656	1908.803534326776	313.699557116229	878.6784626862129	2108.3169007338	589.3957457978125	822.5617983307027	2066.252053819904	597.314695984469	882.2638272467161	2117.537847984382	699.3285143025705	816.4222395644346	2081.081341933254	706.6473114663191	875.402720944613	2276.740729693646	944.9075482938769	1078.702318836957	2184.259835267801	243.4056294953261	1050.324097941741	2032.711492732832	333.6790577187229	1004.320240373861	2061.450104224425	321.556860387703	1055.632521746467	2075.690828655954	356.692464463857	1011.096881337589	2190.98803601539	1002.098525527088	1117.794442397231	2183.553767514635	184.5270467697902	1003.433304972688	2132.209198776703	202.1220287885275	1101.243632038637	2116.335427307286	964.6121560634454	1005.814092269413	2167.927684391578	391.5433441098533	1075.43998089594	2161.693647973846	410.3187380427935	1027.979510009427	2225.450351052834	452.5700727022339	1088.717528794156	2215.965967879406	468.9341169987711	1039.093881162719	2407.726148843603	617.3365667333045	1129.719341548155	2365.514373576857	577.2297649297761	1086.490958558783	2325.615630148428	690.8637440699032	1140.568954304327	2285.43610141	651.7504728976114	1100.795488351378	
